<mxfile host="app.diagrams.net" modified="2023-10-15T16:55:28.778Z" agent="Mozilla/5.0 (Windows NT 10.0; Win64; x64) AppleWebKit/537.36 (KHTML, like Gecko) Chrome/118.0.0.0 Safari/537.36" etag="tLVYe3ssONT_97b6wKrp" version="22.0.4" type="device">
  <diagram id="qaiLERLcsFXwNnowRdfb" name="Page-1">
    <mxGraphModel dx="1218" dy="518" grid="1" gridSize="10" guides="1" tooltips="1" connect="1" arrows="1" fold="1" page="1" pageScale="1" pageWidth="827" pageHeight="1169" math="0" shadow="0">
      <root>
        <mxCell id="0" />
        <mxCell id="1" parent="0" />
        <mxCell id="EBXPNnfjhaqil39bTpts-1" value="Scientist" style="swimlane;fontStyle=0;childLayout=stackLayout;horizontal=1;startSize=26;fillColor=none;horizontalStack=0;resizeParent=1;resizeParentMax=0;resizeLast=0;collapsible=1;marginBottom=0;" vertex="1" parent="1">
          <mxGeometry x="130.60999999999999" y="590" width="140" height="78" as="geometry" />
        </mxCell>
        <mxCell id="EBXPNnfjhaqil39bTpts-2" value="name" style="text;strokeColor=none;fillColor=none;align=left;verticalAlign=top;spacingLeft=4;spacingRight=4;overflow=hidden;rotatable=0;points=[[0,0.5],[1,0.5]];portConstraint=eastwest;" vertex="1" parent="EBXPNnfjhaqil39bTpts-1">
          <mxGeometry y="26" width="140" height="26" as="geometry" />
        </mxCell>
        <mxCell id="EBXPNnfjhaqil39bTpts-3" value="age" style="text;strokeColor=none;fillColor=none;align=left;verticalAlign=top;spacingLeft=4;spacingRight=4;overflow=hidden;rotatable=0;points=[[0,0.5],[1,0.5]];portConstraint=eastwest;" vertex="1" parent="EBXPNnfjhaqil39bTpts-1">
          <mxGeometry y="52" width="140" height="26" as="geometry" />
        </mxCell>
        <mxCell id="EBXPNnfjhaqil39bTpts-5" value="AirSettings" style="swimlane;fontStyle=0;childLayout=stackLayout;horizontal=1;startSize=26;fillColor=none;horizontalStack=0;resizeParent=1;resizeParentMax=0;resizeLast=0;collapsible=1;marginBottom=0;" vertex="1" parent="1">
          <mxGeometry x="394" y="590" width="140" height="78" as="geometry" />
        </mxCell>
        <mxCell id="EBXPNnfjhaqil39bTpts-6" value="polutionLevel" style="text;strokeColor=none;fillColor=none;align=left;verticalAlign=top;spacingLeft=4;spacingRight=4;overflow=hidden;rotatable=0;points=[[0,0.5],[1,0.5]];portConstraint=eastwest;" vertex="1" parent="EBXPNnfjhaqil39bTpts-5">
          <mxGeometry y="26" width="140" height="26" as="geometry" />
        </mxCell>
        <mxCell id="EBXPNnfjhaqil39bTpts-7" value="humidityLevel" style="text;strokeColor=none;fillColor=none;align=left;verticalAlign=top;spacingLeft=4;spacingRight=4;overflow=hidden;rotatable=0;points=[[0,0.5],[1,0.5]];portConstraint=eastwest;" vertex="1" parent="EBXPNnfjhaqil39bTpts-5">
          <mxGeometry y="52" width="140" height="26" as="geometry" />
        </mxCell>
        <mxCell id="EBXPNnfjhaqil39bTpts-8" value="PolutionTracker" style="swimlane;fontStyle=0;childLayout=stackLayout;horizontal=1;startSize=26;fillColor=none;horizontalStack=0;resizeParent=1;resizeParentMax=0;resizeLast=0;collapsible=1;marginBottom=0;" vertex="1" parent="1">
          <mxGeometry x="393.9999999999999" y="780" width="140" height="78" as="geometry" />
        </mxCell>
        <mxCell id="EBXPNnfjhaqil39bTpts-9" value="airPoluted" style="text;strokeColor=none;fillColor=none;align=left;verticalAlign=top;spacingLeft=4;spacingRight=4;overflow=hidden;rotatable=0;points=[[0,0.5],[1,0.5]];portConstraint=eastwest;" vertex="1" parent="EBXPNnfjhaqil39bTpts-8">
          <mxGeometry y="26" width="140" height="26" as="geometry" />
        </mxCell>
        <mxCell id="EBXPNnfjhaqil39bTpts-10" value="lowHumidity" style="text;strokeColor=none;fillColor=none;align=left;verticalAlign=top;spacingLeft=4;spacingRight=4;overflow=hidden;rotatable=0;points=[[0,0.5],[1,0.5]];portConstraint=eastwest;" vertex="1" parent="EBXPNnfjhaqil39bTpts-8">
          <mxGeometry y="52" width="140" height="26" as="geometry" />
        </mxCell>
        <mxCell id="EBXPNnfjhaqil39bTpts-18" value="NotificationSender" style="swimlane;fontStyle=0;childLayout=stackLayout;horizontal=1;startSize=26;fillColor=none;horizontalStack=0;resizeParent=1;resizeParentMax=0;resizeLast=0;collapsible=1;marginBottom=0;" vertex="1" parent="1">
          <mxGeometry x="130.61" y="765" width="140" height="108" as="geometry" />
        </mxCell>
        <mxCell id="EBXPNnfjhaqil39bTpts-19" value="date" style="text;strokeColor=none;fillColor=none;align=left;verticalAlign=top;spacingLeft=4;spacingRight=4;overflow=hidden;rotatable=0;points=[[0,0.5],[1,0.5]];portConstraint=eastwest;" vertex="1" parent="EBXPNnfjhaqil39bTpts-18">
          <mxGeometry y="26" width="140" height="26" as="geometry" />
        </mxCell>
        <mxCell id="EBXPNnfjhaqil39bTpts-46" value="message" style="text;strokeColor=none;fillColor=none;align=left;verticalAlign=top;spacingLeft=4;spacingRight=4;overflow=hidden;rotatable=0;points=[[0,0.5],[1,0.5]];portConstraint=eastwest;" vertex="1" parent="EBXPNnfjhaqil39bTpts-18">
          <mxGeometry y="52" width="140" height="28" as="geometry" />
        </mxCell>
        <mxCell id="EBXPNnfjhaqil39bTpts-20" value="type" style="text;strokeColor=none;fillColor=none;align=left;verticalAlign=top;spacingLeft=4;spacingRight=4;overflow=hidden;rotatable=0;points=[[0,0.5],[1,0.5]];portConstraint=eastwest;" vertex="1" parent="EBXPNnfjhaqil39bTpts-18">
          <mxGeometry y="80" width="140" height="28" as="geometry" />
        </mxCell>
        <mxCell id="EBXPNnfjhaqil39bTpts-26" value="" style="endArrow=open;startArrow=none;endFill=0;startFill=0;endSize=8;html=1;verticalAlign=bottom;labelBackgroundColor=none;strokeWidth=1;rounded=0;entryX=0;entryY=0.5;entryDx=0;entryDy=0;exitX=1;exitY=0.5;exitDx=0;exitDy=0;" edge="1" parent="1" source="EBXPNnfjhaqil39bTpts-2" target="EBXPNnfjhaqil39bTpts-6">
          <mxGeometry width="160" relative="1" as="geometry">
            <mxPoint x="284" y="780" as="sourcePoint" />
            <mxPoint x="444" y="780" as="targetPoint" />
          </mxGeometry>
        </mxCell>
        <mxCell id="EBXPNnfjhaqil39bTpts-27" value="1" style="text;html=1;strokeColor=none;fillColor=none;align=center;verticalAlign=middle;whiteSpace=wrap;rounded=0;" vertex="1" parent="1">
          <mxGeometry x="264" y="627" width="60" height="30" as="geometry" />
        </mxCell>
        <mxCell id="EBXPNnfjhaqil39bTpts-28" value="*" style="text;html=1;strokeColor=none;fillColor=none;align=center;verticalAlign=middle;whiteSpace=wrap;rounded=0;" vertex="1" parent="1">
          <mxGeometry x="344" y="627" width="60" height="30" as="geometry" />
        </mxCell>
        <mxCell id="EBXPNnfjhaqil39bTpts-29" value="manage" style="text;html=1;strokeColor=none;fillColor=none;align=center;verticalAlign=middle;whiteSpace=wrap;rounded=0;" vertex="1" parent="1">
          <mxGeometry x="309" y="590" width="60" height="30" as="geometry" />
        </mxCell>
        <mxCell id="EBXPNnfjhaqil39bTpts-30" value="" style="endArrow=open;startArrow=none;endFill=0;startFill=0;endSize=8;html=1;verticalAlign=bottom;labelBackgroundColor=none;strokeWidth=1;rounded=0;exitX=0.5;exitY=0;exitDx=0;exitDy=0;entryX=0.5;entryY=0;entryDx=0;entryDy=0;" edge="1" parent="1" target="EBXPNnfjhaqil39bTpts-8">
          <mxGeometry width="160" relative="1" as="geometry">
            <mxPoint x="464" y="670" as="sourcePoint" />
            <mxPoint x="384" y="740" as="targetPoint" />
          </mxGeometry>
        </mxCell>
        <mxCell id="EBXPNnfjhaqil39bTpts-31" value="1" style="text;html=1;strokeColor=none;fillColor=none;align=center;verticalAlign=middle;whiteSpace=wrap;rounded=0;" vertex="1" parent="1">
          <mxGeometry x="454" y="668" width="60" height="30" as="geometry" />
        </mxCell>
        <mxCell id="EBXPNnfjhaqil39bTpts-32" value="1" style="text;html=1;strokeColor=none;fillColor=none;align=center;verticalAlign=middle;whiteSpace=wrap;rounded=0;" vertex="1" parent="1">
          <mxGeometry x="454" y="740" width="60" height="30" as="geometry" />
        </mxCell>
        <mxCell id="EBXPNnfjhaqil39bTpts-33" value="" style="endArrow=open;startArrow=none;endFill=0;startFill=0;endSize=8;html=1;verticalAlign=bottom;labelBackgroundColor=none;strokeWidth=1;rounded=0;exitX=0.5;exitY=0;exitDx=0;exitDy=0;entryX=0.498;entryY=1.061;entryDx=0;entryDy=0;entryPerimeter=0;" edge="1" parent="1" source="EBXPNnfjhaqil39bTpts-18" target="EBXPNnfjhaqil39bTpts-3">
          <mxGeometry width="160" relative="1" as="geometry">
            <mxPoint x="270.61" y="805.5" as="sourcePoint" />
            <mxPoint x="200" y="700" as="targetPoint" />
          </mxGeometry>
        </mxCell>
        <mxCell id="EBXPNnfjhaqil39bTpts-34" value="1" style="text;html=1;strokeColor=none;fillColor=none;align=center;verticalAlign=middle;whiteSpace=wrap;rounded=0;" vertex="1" parent="1">
          <mxGeometry x="184" y="740" width="60" height="30" as="geometry" />
        </mxCell>
        <mxCell id="EBXPNnfjhaqil39bTpts-35" value="*" style="text;html=1;strokeColor=none;fillColor=none;align=center;verticalAlign=middle;whiteSpace=wrap;rounded=0;" vertex="1" parent="1">
          <mxGeometry x="184" y="668" width="60" height="30" as="geometry" />
        </mxCell>
        <mxCell id="EBXPNnfjhaqil39bTpts-37" value="send" style="text;html=1;strokeColor=none;fillColor=none;align=center;verticalAlign=middle;whiteSpace=wrap;rounded=0;" vertex="1" parent="1">
          <mxGeometry x="140" y="710" width="60" height="30" as="geometry" />
        </mxCell>
        <mxCell id="EBXPNnfjhaqil39bTpts-45" value="get" style="text;html=1;strokeColor=none;fillColor=none;align=center;verticalAlign=middle;whiteSpace=wrap;rounded=0;" vertex="1" parent="1">
          <mxGeometry x="454" y="710" width="60" height="30" as="geometry" />
        </mxCell>
        <mxCell id="EBXPNnfjhaqil39bTpts-70" value="ClarityIoApiClient" style="swimlane;fontStyle=0;childLayout=stackLayout;horizontal=1;startSize=26;fillColor=none;horizontalStack=0;resizeParent=1;resizeParentMax=0;resizeLast=0;collapsible=1;marginBottom=0;" vertex="1" parent="1">
          <mxGeometry x="393.9999999999999" y="970" width="140" height="78" as="geometry" />
        </mxCell>
        <mxCell id="EBXPNnfjhaqil39bTpts-71" value="getAirPolutionLevel" style="text;strokeColor=none;fillColor=none;align=left;verticalAlign=top;spacingLeft=4;spacingRight=4;overflow=hidden;rotatable=0;points=[[0,0.5],[1,0.5]];portConstraint=eastwest;" vertex="1" parent="EBXPNnfjhaqil39bTpts-70">
          <mxGeometry y="26" width="140" height="26" as="geometry" />
        </mxCell>
        <mxCell id="EBXPNnfjhaqil39bTpts-72" value="getAirHumidityLevel" style="text;strokeColor=none;fillColor=none;align=left;verticalAlign=top;spacingLeft=4;spacingRight=4;overflow=hidden;rotatable=0;points=[[0,0.5],[1,0.5]];portConstraint=eastwest;" vertex="1" parent="EBXPNnfjhaqil39bTpts-70">
          <mxGeometry y="52" width="140" height="26" as="geometry" />
        </mxCell>
        <mxCell id="EBXPNnfjhaqil39bTpts-75" value="" style="endArrow=open;startArrow=none;endFill=0;startFill=0;endSize=8;html=1;verticalAlign=bottom;labelBackgroundColor=none;strokeWidth=1;rounded=0;exitX=0.5;exitY=0;exitDx=0;exitDy=0;entryX=0.5;entryY=0;entryDx=0;entryDy=0;" edge="1" parent="1">
          <mxGeometry width="160" relative="1" as="geometry">
            <mxPoint x="464" y="970" as="sourcePoint" />
            <mxPoint x="464" y="860" as="targetPoint" />
          </mxGeometry>
        </mxCell>
        <mxCell id="EBXPNnfjhaqil39bTpts-76" value="1" style="text;html=1;strokeColor=none;fillColor=none;align=center;verticalAlign=middle;whiteSpace=wrap;rounded=0;" vertex="1" parent="1">
          <mxGeometry x="454" y="858" width="60" height="30" as="geometry" />
        </mxCell>
        <mxCell id="EBXPNnfjhaqil39bTpts-77" value="1" style="text;html=1;strokeColor=none;fillColor=none;align=center;verticalAlign=middle;whiteSpace=wrap;rounded=0;" vertex="1" parent="1">
          <mxGeometry x="454" y="930" width="60" height="30" as="geometry" />
        </mxCell>
        <mxCell id="EBXPNnfjhaqil39bTpts-78" value="get" style="text;html=1;strokeColor=none;fillColor=none;align=center;verticalAlign=middle;whiteSpace=wrap;rounded=0;" vertex="1" parent="1">
          <mxGeometry x="454" y="900" width="60" height="30" as="geometry" />
        </mxCell>
        <mxCell id="EBXPNnfjhaqil39bTpts-85" value="" style="endArrow=open;startArrow=none;endFill=0;startFill=0;endSize=8;html=1;verticalAlign=bottom;labelBackgroundColor=none;strokeWidth=1;rounded=0;entryX=0.349;entryY=0.023;entryDx=0;entryDy=0;exitX=1;exitY=0;exitDx=0;exitDy=0;entryPerimeter=0;" edge="1" parent="1" source="EBXPNnfjhaqil39bTpts-87" target="EBXPNnfjhaqil39bTpts-86">
          <mxGeometry width="160" relative="1" as="geometry">
            <mxPoint x="384" y="839.5" as="sourcePoint" />
            <mxPoint x="261" y="839.5" as="targetPoint" />
          </mxGeometry>
        </mxCell>
        <mxCell id="EBXPNnfjhaqil39bTpts-86" value="1" style="text;html=1;strokeColor=none;fillColor=none;align=center;verticalAlign=middle;whiteSpace=wrap;rounded=0;" vertex="1" parent="1">
          <mxGeometry x="254" y="837.5" width="60" height="30" as="geometry" />
        </mxCell>
        <mxCell id="EBXPNnfjhaqil39bTpts-87" value="*" style="text;html=1;strokeColor=none;fillColor=none;align=center;verticalAlign=middle;whiteSpace=wrap;rounded=0;" vertex="1" parent="1">
          <mxGeometry x="334" y="837.5" width="60" height="30" as="geometry" />
        </mxCell>
        <mxCell id="EBXPNnfjhaqil39bTpts-88" value="create" style="text;html=1;strokeColor=none;fillColor=none;align=center;verticalAlign=middle;whiteSpace=wrap;rounded=0;" vertex="1" parent="1">
          <mxGeometry x="299" y="800.5" width="60" height="30" as="geometry" />
        </mxCell>
      </root>
    </mxGraphModel>
  </diagram>
</mxfile>
